<svg xmlns="http://www.w3.org/2000/svg" width="880" height="730" viewBox="0 0 880 730" role="img" aria-labelledby="title desc"><title id="title">Shuaigle — Senior backend engineer</title><desc id="desc">Shuaigle, senior backend engineer: scalable systems × software that thinks. A request trace of GET /shuaigle fans out into backend.architecture, distributed.systems, performance.tuning, fullstack.web, data.pipelines, ml.deep_learning, and llm.rag.agents, which is still streaming.</desc><style>.ink{fill:#e6edf3}.mute{fill:#9198a1}.accent{fill:#ff7452}.rule{stroke:#3d444d;stroke-width:1;fill:none}.wire{stroke:#9198a1;stroke-width:1;fill:none}.hair{stroke:#e6edf3;stroke-width:1;fill:none}@keyframes grow{from{transform:scaleX(0)}}@keyframes show{from{opacity:0}}@keyframes blink{50%{opacity:0}}.bar{transform-box:fill-box;transform-origin:0 0;animation:grow linear both}.in{animation:show .3s ease-out both}.cursor{animation:show 0s linear both,blink 1.06s steps(1) infinite}@media (prefers-reduced-motion:reduce){*{animation:none!important}}</style><defs><path id="s0" d="M184 -9Q164 -9 139.5 -5Q115 -1 93.5 5Q72 11 60 18Q53 22 49.5 26.5Q46 31 46 42L41 199Q41 219 54 219Q65 219 69 201L78 163Q112 20 205 20Q255 20 284.5 53.5Q314 87 314 148Q314 207 283.5 258Q253 309 186 359Q112 412 78 461.5Q44 511 44 567Q44 641 95.5 685.5Q147 730 227 730Q257 730 285 723Q313 716 331 703Q337 699 340.5 694Q344 689 344 681L347 530Q347 513 334 513Q325 513 321 527L314 552Q292 629 268.5 664.5Q245 700 201 700Q158 700 132.5 672Q107 644 107 593Q107 550 135 511Q163 472 233 416Q308 355 342.5 298.5Q377 242 377 178Q377 122 352 80Q327 38 283.5 14.5Q240 -9 184 -9Z"/><path id="s1" d="M27 0Q15 0 15 11Q15 21 26 23L40 25Q61 28 67.5 37Q74 46 74 67V640Q74 658 68.5 664.5Q63 671 49 673L28 676Q17 678 17 688Q17 698 28 700Q56 706 75 714Q94 722 107 730Q123 740 131 740Q142 740 142 724V459Q142 450 148 448.5Q154 447 163 455Q201 490 230 503Q259 516 291 516Q338 516 365 484.5Q392 453 392 392V67Q392 46 398.5 37.5Q405 29 426 26L448 23Q459 21 459 11Q459 0 447 0H279Q265 0 265 11Q265 21 276 23L290 25Q311 28 317.5 37Q324 46 324 67V381Q324 430 306 450Q288 470 255 470Q223 470 197.5 451.5Q172 433 157 402.5Q142 372 142 335V67Q142 46 148.5 37Q155 28 176 26L203 23Q214 21 214 11Q214 0 202 0Z"/><path id="s2" d="M171 -9Q146 -9 123 2Q100 13 85 37Q70 61 70 101V449Q70 467 64.5 474Q59 481 45 482L28 484Q11 486 11 497Q11 510 30 510H123Q138 510 138 495V122Q138 76 155.5 56.5Q173 37 204 37Q235 37 259 54.5Q283 72 297.5 101.5Q312 131 312 166V449Q312 467 306.5 474Q301 481 287 482L270 484Q253 486 253 497Q253 510 272 510H365Q380 510 380 495V107Q380 89 385.5 82.5Q391 76 405 74L426 71Q439 70 439 61Q439 52 423 49Q392 45 373.5 33Q355 21 341 4Q332 -5 326 -5Q317 -5 317 7V53Q317 61 311.5 62.5Q306 64 300 58Q263 21 234.5 6Q206 -9 171 -9Z"/><path id="s3" d="M120 -9Q78 -9 51 17.5Q24 44 24 88Q24 131 51 169.5Q78 208 125 239Q172 270 232 289Q245 293 245 306V397Q245 445 230 465.5Q215 486 189 486Q164 486 143.5 463.5Q123 441 114 388Q109 356 92.5 341.5Q76 327 59 327Q31 327 31 355Q31 384 47.5 412.5Q64 441 91 464.5Q118 488 150 502Q182 516 214 516Q313 516 313 401V95Q313 53 334 53Q347 53 358 70.5Q369 88 369 130Q369 146 382 146Q394 146 394 129Q394 56 368.5 23.5Q343 -9 311 -9Q287 -9 273 10.5Q259 30 254 57Q253 67 245.5 67.5Q238 68 231 58Q207 25 182 8Q157 -9 120 -9ZM147 37Q173 37 195 55.5Q217 74 231 105Q245 136 245 175V248Q245 267 224 259Q163 237 129.5 198.5Q96 160 96 106Q96 37 147 37Z"/><path id="s4" d="M114 605Q93 605 78.5 620Q64 635 64 658Q64 681 78.5 695.5Q93 710 114 710Q135 710 149 695.5Q163 681 163 658Q163 635 149 620Q135 605 114 605Z"/><path id="s5" d="M30 0Q15 0 15 11Q15 20 28 23L40 25Q65 29 72 37.5Q79 46 79 67V403Q79 421 73.5 427.5Q68 434 54 436L33 439Q20 440 20 450Q20 458 36 461Q67 466 86 477Q105 488 123 504Q132 513 138 513Q147 513 147 501V67Q147 46 153 37Q159 28 176 26L201 23Q212 21 212 12Q212 0 197 0Z"/><path id="s6" d="M178 -215Q102 -215 58 -184.5Q14 -154 14 -111Q14 -93 19 -78.5Q24 -64 40.5 -45Q57 -26 91 4Q103 15 103 24.5Q103 34 91 39Q55 54 48 77.5Q41 101 65 121L137 183Q149 193 136 200Q95 220 71 262Q47 304 47 352Q47 398 67 435Q87 472 121 494Q155 516 197 516Q221 516 243 508Q257 503 260 517Q269 555 293.5 576.5Q318 598 342 598Q365 598 379.5 584.5Q394 571 394 551Q394 534 384 524Q374 514 359 514Q346 514 340 519Q334 524 329 529Q324 534 313 534Q289 534 283 508Q280 498 283.5 491Q287 484 294 477Q318 454 331.5 421Q345 388 345 348Q345 300 325.5 262Q306 224 272.5 202Q239 180 197 180Q179 180 166 172.5Q153 165 140 151L123 132Q110 116 115.5 101.5Q121 87 143 87H229Q301 87 343 51.5Q385 16 385 -46Q385 -95 357 -133Q329 -171 282.5 -193Q236 -215 178 -215ZM196 205Q232 205 253 244Q274 283 274 350Q274 415 252.5 454.5Q231 494 196 494Q161 494 139.5 454.5Q118 415 118 350Q118 283 139 244Q160 205 196 205ZM190 -193Q226 -193 256 -177Q286 -161 303.5 -132.5Q321 -104 321 -68Q321 -23 294.5 1.5Q268 26 220 26H197Q166 26 150.5 20Q135 14 121 -1Q90 -34 82 -54Q74 -74 74 -95Q74 -139 104.5 -166Q135 -193 190 -193Z"/><path id="s7" d="M20 0Q8 0 8 11Q8 21 19 23L33 25Q54 28 64 37Q74 46 74 67V640Q74 658 68.5 665Q63 672 49 673L26 676Q15 678 15 688Q15 698 26 700Q54 706 74 714Q94 722 107 730Q123 740 131 740Q142 740 142 724V67Q142 46 148.5 37.5Q155 29 176 26L199 23Q210 21 210 11Q210 0 198 0Z"/><path id="s8" d="M192 -9Q144 -9 106 23Q68 55 45.5 113.5Q23 172 23 249Q23 328 46 388Q69 448 109 482Q149 516 198 516Q257 516 293.5 467.5Q330 419 330 310Q330 277 305 277H115Q95 277 95 254Q95 148 126 95Q157 42 205 42Q243 42 267 69Q291 96 306 160Q309 171 319 171Q331 171 328 151Q312 62 277 26.5Q242 -9 192 -9ZM112 302H213Q261 302 261 352Q261 417 245 454Q229 491 197 491Q158 491 131.5 446Q105 401 97 318Q95 302 112 302Z"/><path id="b9" d="M294 -12Q203 -12 141 20Q79 52 39 105L111 174Q151 126 196 103.5Q241 81 298 81Q364 81 399.5 111Q435 141 435 197Q435 242 409 266.5Q383 291 320 302L244 314Q194 322 160 340.5Q126 359 105 384.5Q84 410 74.5 441.5Q65 473 65 508Q65 607 129 658.5Q193 710 305 710Q388 710 446.5 683.5Q505 657 541 609L471 539Q442 574 402.5 595.5Q363 617 305 617Q243 617 210.5 590.5Q178 564 178 513Q178 470 203.5 445.5Q229 421 294 410L368 397Q462 380 505 328.5Q548 277 548 203Q548 155 531.5 115Q515 75 482.5 47Q450 19 402.5 3.5Q355 -12 294 -12Z"/><path id="ba" d="M311 -12Q252 -12 205 7Q158 26 126 61Q94 96 77 145.5Q60 195 60 257Q60 319 77.5 369Q95 419 126.5 454.5Q158 490 203 509Q248 528 303 528Q357 528 401 509.5Q445 491 476 457Q507 423 523.5 376Q540 329 540 272V231H170V214Q170 153 208 114.5Q246 76 313 76Q363 76 398.5 97.5Q434 119 456 155L524 95Q498 50 444.5 19Q391 -12 311 -12ZM303 445Q274 445 249.5 435Q225 425 207.5 406.5Q190 388 180 363Q170 338 170 308V301H429V311Q429 372 394.5 408.5Q360 445 303 445Z"/><path id="bb" d="M84 0V516H193V428H198Q206 448 218.5 466.5Q231 485 249 498.5Q267 512 291 520Q315 528 347 528Q425 528 473 477Q521 426 521 332V0H412V316Q412 439 305 439Q284 439 264 433.5Q244 428 228 417Q212 406 202.5 389Q193 372 193 350V0Z"/><path id="bc" d="M332 610Q290 610 273.5 627Q257 644 257 669V690Q257 715 273.5 732Q290 749 331 749Q373 749 389.5 732Q406 715 406 690V669Q406 644 389.5 627Q373 610 332 610ZM101 88H277V428H101V516H386V88H551V0H101Z"/><path id="bd" d="M300 -12Q243 -12 197.5 7Q152 26 120.5 61Q89 96 72 146Q55 196 55 258Q55 320 72 370Q89 420 120.5 455Q152 490 197.5 509Q243 528 300 528Q357 528 402.5 509Q448 490 479.5 455Q511 420 528 370Q545 320 545 258Q545 196 528 146Q511 96 479.5 61Q448 26 402.5 7Q357 -12 300 -12ZM300 74Q360 74 395.5 110.5Q431 147 431 219V297Q431 369 395.5 405.5Q360 442 300 442Q240 442 204.5 405.5Q169 369 169 297V219Q169 147 204.5 110.5Q240 74 300 74Z"/><path id="be" d="M76 88H213V428H76V516H322V379H328Q335 406 348 431Q361 456 381 474.5Q401 493 430 504.5Q459 516 498 516H560V412H458Q398 412 360 376.5Q322 341 322 281V88H509V0H76Z"/><path id="b10" d="M79 740H188V428H194Q217 475 255 501.5Q293 528 350 528Q441 528 495 460Q549 392 549 258Q549 124 495 56Q441 -12 350 -12Q293 -12 255 14.5Q217 41 194 88H188V0H79ZM305 77Q367 77 400.5 115Q434 153 434 216V300Q434 363 400.5 401Q367 439 305 439Q281 439 260 433Q239 427 223 415Q207 403 197.5 385.5Q188 368 188 344V172Q188 148 197.5 130.5Q207 113 223 101Q239 89 260 83Q281 77 305 77Z"/><path id="b11" d="M492 0Q445 0 421.5 24Q398 48 393 87H388Q373 40 333.5 14Q294 -12 233 -12Q154 -12 107 29.5Q60 71 60 144Q60 219 115.5 258.5Q171 298 286 298H385V338Q385 443 274 443Q224 443 193 423.5Q162 404 141 372L76 425Q98 467 150 497.5Q202 528 284 528Q382 528 438 481Q494 434 494 345V86H559V0ZM264 68Q317 68 351 92Q385 116 385 154V229H288Q170 229 170 158V138Q170 103 195 85.5Q220 68 264 68Z"/><path id="b12" d="M319 -12Q261 -12 215.5 7Q170 26 138.5 61Q107 96 90.5 146Q74 196 74 258Q74 320 90.5 370Q107 420 138.5 455Q170 490 215.5 509Q261 528 318 528Q398 528 446.5 494Q495 460 519 406L434 360Q420 396 391.5 417Q363 438 318 438Q256 438 222 400.5Q188 363 188 301V215Q188 154 222 116Q256 78 320 78Q368 78 398.5 100Q429 122 447 160L527 111Q502 57 451 22.5Q400 -12 319 -12Z"/><path id="b13" d="M88 740H197V293H202L283 376L428 516H557L348 313L580 0H449L269 251L197 184V0H88Z"/><path id="b14" d="M412 88H406Q383 41 345 14.5Q307 -12 250 -12Q159 -12 105 56Q51 124 51 258Q51 392 105 460Q159 528 250 528Q307 528 345 501.5Q383 475 406 428H412V740H521V0H412ZM295 77Q319 77 340 83Q361 89 377 101Q393 113 402.5 130.5Q412 148 412 172V344Q412 368 402.5 385.5Q393 403 377 415Q361 427 340 433Q319 439 295 439Q233 439 199.5 401Q166 363 166 300V216Q166 153 199.5 115Q233 77 295 77Z"/><path id="b15" d="M570 -56Q570 -136 503 -174Q436 -212 299 -212Q232 -212 186.5 -203.5Q141 -195 112.5 -179Q84 -163 71.5 -140Q59 -117 59 -88Q59 -46 82.5 -22.5Q106 1 149 12V22Q123 32 107.5 50Q92 68 92 97Q92 135 118 154.5Q144 174 185 184V189Q138 211 112 251Q86 291 86 347Q86 388 101 421.5Q116 455 143.5 478.5Q171 502 209.5 515Q248 528 296 528Q350 528 393 511V528Q393 558 410 578Q427 598 462 598H556V512H436V488Q470 465 488 429.5Q506 394 506 347Q506 306 491 272.5Q476 239 448.5 215.5Q421 192 382.5 179.5Q344 167 296 167Q262 167 232 173Q214 168 196 156Q178 144 178 123Q178 99 201 93Q224 87 258 87H374Q478 87 524 47.5Q570 8 570 -56ZM468 -63Q468 -37 447 -21.5Q426 -6 371 -6H192Q154 -24 154 -64Q154 -93 178.5 -114Q203 -135 260 -135H341Q403 -135 435.5 -116.5Q468 -98 468 -63ZM296 242Q349 242 374 267Q399 292 399 334V361Q399 403 374 428Q349 453 296 453Q243 453 218 428Q193 403 193 361V334Q193 292 218 267Q243 242 296 242Z"/><path id="m16" d="M306 -12Q225 -12 166.5 15.5Q108 43 67 89L121 136Q158 97 202 76Q246 55 308 55Q368 55 406.5 76.5Q445 98 445 144Q445 164 437.5 177.5Q430 191 417 199Q404 207 388 211.5Q372 216 354 219L273 231Q246 235 214.5 242Q183 249 157 264.5Q131 280 113.5 306Q96 332 96 374Q96 413 111.5 441.5Q127 470 155 489.5Q183 509 221 518.5Q259 528 304 528Q374 528 425.5 506Q477 484 514 445L462 396Q453 407 439.5 418.5Q426 430 406.5 439.5Q387 449 361 455Q335 461 301 461Q240 461 207.5 440Q175 419 175 379Q175 359 182.5 345.5Q190 332 203 324Q216 316 232.5 311.5Q249 307 266 304L347 292Q375 288 406 281Q437 274 463 258.5Q489 243 506.5 217Q524 191 524 149Q524 72 464.5 30Q405 -12 306 -12Z"/><path id="m17" d="M318 -12Q262 -12 218.5 7.5Q175 27 145 62Q115 97 99.5 147Q84 197 84 258Q84 319 100 369Q116 419 146 454.5Q176 490 219 509Q262 528 317 528Q392 528 439 495Q486 462 508 409L444 375Q430 415 397.5 437Q365 459 317 459Q282 459 254.5 447.5Q227 436 208 415Q189 394 179.5 365Q170 336 170 302V214Q170 180 179.5 151Q189 122 208 101Q227 80 255 68.5Q283 57 319 57Q371 57 405 81Q439 105 459 147L516 108Q493 56 444.5 22Q396 -12 318 -12Z"/><path id="m18" d="M495 0Q448 0 428 24Q408 48 403 84H398Q381 39 343.5 13.5Q306 -12 243 -12Q162 -12 114 30Q66 72 66 145Q66 217 118.5 256Q171 295 288 295H398V346Q398 403 366 431.5Q334 460 275 460Q223 460 190 439.5Q157 419 137 384L83 424Q93 444 110 463Q127 482 152 496.5Q177 511 209 519.5Q241 528 280 528Q371 528 424.5 482Q478 436 478 354V70H550V0ZM257 55Q288 55 313.5 62.5Q339 70 358 82.5Q377 95 387.5 112.5Q398 130 398 150V235H288Q216 235 183 215Q150 195 150 157V136Q150 96 178.5 75.5Q207 55 257 55Z"/><path id="m19" d="M80 68H260V672H80V740H340V68H520V0H80Z"/><path id="m1a" d="M95 740H175V432H179Q229 528 338 528Q433 528 486.5 457Q540 386 540 258Q540 130 486.5 59Q433 -12 338 -12Q229 -12 179 84H175V0H95ZM307 59Q377 59 415.5 101.5Q454 144 454 214V302Q454 372 415.5 414.5Q377 457 307 457Q280 457 256 450Q232 443 214 429.5Q196 416 185.5 396.5Q175 377 175 351V165Q175 139 185.5 119.5Q196 100 214 86.5Q232 73 256 66Q280 59 307 59Z"/><path id="m1b" d="M309 -12Q253 -12 208.5 7Q164 26 132.5 61.5Q101 97 84 146.5Q67 196 67 257Q67 319 84.5 369Q102 419 133 454.5Q164 490 207.5 509Q251 528 304 528Q356 528 398.5 509Q441 490 471 456.5Q501 423 517 377Q533 331 533 276V238H151V214Q151 180 162 151Q173 122 193.5 101Q214 80 243.5 68.5Q273 57 309 57Q361 57 399 81Q437 105 457 147L516 107Q493 55 439.5 21.5Q386 -12 309 -12ZM304 462Q271 462 243 450Q215 438 194.5 417Q174 396 162.5 367.5Q151 339 151 305V298H447V309Q447 343 436.5 371Q426 399 407.5 419.5Q389 440 362.5 451Q336 462 304 462Z"/><path id="m1d" d="M467 516H547L291 -113Q282 -135 271 -151.5Q260 -168 245 -178.5Q230 -189 209 -194.5Q188 -200 159 -200H83V-132H203L261 10L53 516H135L222 300L299 104H303L380 300Z"/><path id="m1e" d="M325 0Q266 0 238.5 33Q211 66 211 118V448H39V516H167Q193 516 203.5 526.5Q214 537 214 563V698H291V516H526V448H291V68H526V0Z"/><path id="m1f" d="M54 0V516H128V456H132Q144 486 166 507Q188 528 231 528Q276 528 298 505.5Q320 483 325 447H328Q342 482 368 505Q394 528 440 528Q503 528 524.5 484Q546 440 546 358V0H472V345Q472 411 458.5 436.5Q445 462 409 462Q377 462 357 441.5Q337 421 337 379V0H263V345Q263 411 249.5 436.5Q236 462 201 462Q169 462 148.5 441.5Q128 421 128 379V0Z"/><path id="m20" d="M300 256 137 93 88 142 251 305 88 468 137 517 300 354 463 517 512 468 349 305 512 142 463 93Z"/><path id="m21" d="M300 -12Q246 -12 202.5 7Q159 26 128.5 61.5Q98 97 82 146.5Q66 196 66 258Q66 319 82 369Q98 419 128.5 454.5Q159 490 202.5 509Q246 528 300 528Q354 528 397.5 509Q441 490 471.5 454.5Q502 419 518 369Q534 319 534 258Q534 196 518 146.5Q502 97 471.5 61.5Q441 26 397.5 7Q354 -12 300 -12ZM300 57Q367 57 408 97Q449 137 449 221V295Q449 379 408 419Q367 459 300 459Q233 459 192 419Q151 379 151 295V221Q151 137 192 97Q233 57 300 57Z"/><path id="m22" d="M83 68H257V448H73V516H257V622Q257 674 284.5 707Q312 740 371 740H544V672H337V516H544V448H337V68H521V0H83Z"/><path id="m23" d="M30 516H101L160 70H169L257 516H345L433 70H442L501 516H570L491 0H387L305 432H297L213 0H109Z"/><path id="m24" d="M77 68H228V448H77V516H308V386H313Q329 447 373.5 481.5Q418 516 487 516H559V436H462Q393 436 350.5 396Q308 356 308 291V68H508V0H77Z"/><path id="m25" d="M98 740H178V432H182Q190 451 202 468.5Q214 486 231.5 499Q249 512 273 520Q297 528 329 528Q410 528 459 476.5Q508 425 508 331V0H428V317Q428 388 397 422.5Q366 457 306 457Q282 457 259 451Q236 445 218 433Q200 421 189 402Q178 383 178 358V0H98Z"/><path id="m26" d="M332 630Q297 630 283 644.5Q269 659 269 681V697Q269 719 283 733.5Q297 748 332 748Q367 748 381 733.5Q395 719 395 697V681Q395 659 381 644.5Q367 630 332 630ZM106 68H292V448H106V516H372V68H546V0H106Z"/><path id="m27" d="M98 0V516H178V432H182Q190 451 202 468.5Q214 486 231.5 499Q249 512 273 520Q297 528 329 528Q410 528 459 476.5Q508 425 508 331V0H428V317Q428 388 397 422.5Q366 457 306 457Q282 457 259 451Q236 445 218 433Q200 421 189 402Q178 383 178 358V0Z"/><path id="m28" d="M105 740H185V273H189L279 358L451 516H549L335 314L574 0H475L274 268L185 187V0H105Z"/><path id="m29" d="M95 516H175V432H179Q229 528 338 528Q433 528 486.5 457Q540 386 540 258Q540 130 486.5 59Q433 -12 338 -12Q229 -12 179 84H175V-200H95ZM307 59Q377 59 415.5 101.5Q454 144 454 214V302Q454 372 415.5 414.5Q377 457 307 457Q280 457 256 450Q232 443 214 429.5Q196 416 185.5 396.5Q175 377 175 351V165Q175 139 185.5 119.5Q196 100 214 86.5Q232 73 256 66Q280 59 307 59Z"/><path id="m2a" d="M300 -12Q236 -12 190 12.5Q144 37 114 83Q84 129 70 196Q56 263 56 349Q56 434 70 501.5Q84 569 114 615Q144 661 190 685.5Q236 710 300 710Q364 710 410 685.5Q456 661 486 615Q516 569 530 501.5Q544 434 544 349Q544 263 530 196Q516 129 486 83Q456 37 410 12.5Q364 -12 300 -12ZM300 61Q342 61 372 77.5Q402 94 420.5 124Q439 154 448 196.5Q457 239 457 292V406Q457 458 448 501Q439 544 420.5 574Q402 604 372 620.5Q342 637 300 637Q258 637 228 620.5Q198 604 179.5 574Q161 544 152 501Q143 458 143 406V292Q143 239 152 196.5Q161 154 179.5 124Q198 94 228 77.5Q258 61 300 61ZM300 290Q265 290 251.5 304Q238 318 238 338V360Q238 380 251.5 394Q265 408 300 408Q335 408 348.5 394Q362 380 362 360V338Q362 318 348.5 304Q335 290 300 290Z"/><path id="m2b" d="M537 0H71V86L304 296Q355 342 388 390.5Q421 439 421 493V505Q421 568 388 602.5Q355 637 290 637Q226 637 191.5 604.5Q157 572 140 518L65 546Q75 577 92.5 606.5Q110 636 137 659Q164 682 202.5 696Q241 710 292 710Q344 710 384.5 695Q425 680 452.5 653Q480 626 494.5 589Q509 552 509 508Q509 468 497.5 433Q486 398 465.5 366Q445 334 416.5 303.5Q388 273 353 243L158 73H537Z"/><path id="m2c" d="M501 625H189L169 358H176Q202 393 234 413.5Q266 434 322 434Q368 434 406.5 419.5Q445 405 473 377Q501 349 517 309.5Q533 270 533 219Q533 168 517 125.5Q501 83 470 52.5Q439 22 395 5Q351 -12 295 -12Q251 -12 216.5 -2Q182 8 155.5 25Q129 42 109 63Q89 84 73 107L136 155Q150 134 164.5 117Q179 100 198 87.5Q217 75 241 68Q265 61 297 61Q369 61 407.5 100Q446 139 446 208V216Q446 285 407 324Q368 363 295 363Q245 363 217.5 346Q190 329 167 304L96 314L121 698H501Z"/><path id="m2d" d="M173 0 446 626H140V496H65V698H531V624L263 0Z"/><path id="m2e" d="M85 0V73H285V636H278L102 472L53 525L238 698H369V73H553V0Z"/><path id="b2f" d="M430 96H423Q414 75 401.5 55.5Q389 36 370.5 21Q352 6 326 -3Q300 -12 266 -12Q157 -12 102 81Q47 174 47 344Q47 522 110 616Q173 710 303 710Q354 710 392.5 696Q431 682 458 658.5Q485 635 503 603.5Q521 572 532 537L431 503Q423 526 413 546.5Q403 567 388.5 583Q374 599 353.5 608Q333 617 304 617Q231 617 198.5 560.5Q166 504 166 408V297Q166 249 173 209Q180 169 196.5 140.5Q213 112 239.5 96Q266 80 304 80Q365 80 397.5 116.5Q430 153 430 210V273H295V357H532V0H430Z"/><path id="b30" d="M86 0V698H523V604H198V401H511V307H198V94H523V0Z"/><path id="b31" d="M356 604V0H244V604H25V698H575V604Z"/><path id="b32" d="M83 -138 420 760H517L180 -138Z"/><path id="b33" d="M301 -12Q217 -12 156.5 15Q96 42 59 87L126 147Q160 110 202.5 90.5Q245 71 303 71Q356 71 388.5 89Q421 107 421 145Q421 161 415 172Q409 183 398 190Q387 197 372.5 201Q358 205 342 207L260 220Q230 224 199 233Q168 242 143.5 258.5Q119 275 103.5 301Q88 327 88 367Q88 446 148.5 487Q209 528 308 528Q380 528 432.5 506.5Q485 485 520 447L459 383Q439 406 402 425.5Q365 445 304 445Q195 445 195 376Q195 343 218.5 330.5Q242 318 274 314L356 301Q387 296 417.5 288Q448 280 472.5 263.5Q497 247 512.5 221Q528 195 528 155Q528 77 467.5 32.5Q407 -12 301 -12Z"/><path id="b34" d="M84 740H193V428H198Q206 448 218.5 466.5Q231 485 249 498.5Q267 512 291 520Q315 528 347 528Q425 528 473 477Q521 426 521 332V0H412V316Q412 439 305 439Q284 439 264 433.5Q244 428 228 417Q212 406 202.5 389Q193 372 193 350V0H84Z"/><path id="b35" d="M407 88H402Q394 68 381.5 49.5Q369 31 351 17.5Q333 4 309 -4Q285 -12 253 -12Q175 -12 127 39Q79 90 79 184V516H188V200Q188 77 295 77Q316 77 336 82.5Q356 88 372 99Q388 110 397.5 126.5Q407 143 407 166V516H516V0H407Z"/><path id="b36" d="M75 88H246V652H75V740H355V88H526V0H75Z"/><path id="m37" d="M300 -9Q259 -9 242.5 8Q226 25 226 51V69Q226 95 242.5 112Q259 129 300 129Q341 129 357.5 112Q374 95 374 69V51Q374 25 357.5 8Q341 -9 300 -9Z"/><path id="m38" d="M425 84H421Q371 -12 262 -12Q167 -12 113.5 59Q60 130 60 258Q60 386 113.5 457Q167 528 262 528Q371 528 421 432H425V740H505V0H425ZM293 59Q320 59 344 66Q368 73 386 86.5Q404 100 414.5 119.5Q425 139 425 165V351Q425 377 414.5 396.5Q404 416 386 429.5Q368 443 344 450Q320 457 293 457Q223 457 184.5 414.5Q146 372 146 302V214Q146 144 184.5 101.5Q223 59 293 59Z"/><path id="m39" d="M422 84H418Q410 65 398 47.5Q386 30 368.5 17Q351 4 327 -4Q303 -12 271 -12Q190 -12 141 39.5Q92 91 92 185V516H172V199Q172 128 203 93.5Q234 59 294 59Q318 59 341 65Q364 71 382 83Q400 95 411 113.5Q422 132 422 158V516H502V0H422Z"/><path id="m3a" d="M536 442Q536 364 512.5 295.5Q489 227 452 170.5Q415 114 370.5 70.5Q326 27 283 0H175Q232 41 276.5 80Q321 119 355 161.5Q389 204 412 252.5Q435 301 450 362L445 364Q419 321 378.5 292.5Q338 264 273 264Q227 264 188.5 279Q150 294 122.5 322Q95 350 79.5 389.5Q64 429 64 479Q64 530 80.5 572.5Q97 615 128 645.5Q159 676 202.5 693Q246 710 299 710Q354 710 398 691.5Q442 673 472.5 638.5Q503 604 519.5 554Q536 504 536 442ZM300 333Q372 333 411.5 372Q451 411 451 482V490Q451 561 411.5 600Q372 639 300 639Q228 639 188.5 600Q149 561 149 490V482Q149 411 188.5 372Q228 333 300 333Z"/><path id="m3b" d="M561 -59Q561 -137 496 -174.5Q431 -212 301 -212Q176 -212 121.5 -179Q67 -146 67 -84Q67 -42 89 -19Q111 4 151 15V27Q129 38 117 55Q105 72 105 98Q105 138 131.5 158Q158 178 198 188V192Q150 213 123.5 254Q97 295 97 350Q97 389 111 422Q125 455 151.5 478.5Q178 502 215 515Q252 528 297 528Q355 528 399 507V516Q399 546 413 566Q427 586 461 586H556V516H440V481Q468 457 483 424Q498 391 498 350Q498 311 483.5 278Q469 245 443 221.5Q417 198 379.5 185Q342 172 297 172Q284 172 272 173Q260 174 248 176Q236 174 223 169.5Q210 165 199 157.5Q188 150 181 140Q174 130 174 117Q174 94 197 86.5Q220 79 257 79H371Q471 79 516 41.5Q561 4 561 -59ZM486 -63Q486 -32 461 -13.5Q436 5 374 5H195Q143 -16 143 -65Q143 -99 170 -123.5Q197 -148 260 -148H338Q408 -148 447 -126.5Q486 -105 486 -63ZM297 234Q357 234 385.5 262Q414 290 414 336V365Q414 411 385.5 438.5Q357 466 297 466Q237 466 209 438.5Q181 411 181 365V336Q181 290 209 262Q237 234 297 234Z"/><path id="m3c" d="M60 -169V-95H540V-169Z"/><path id="m3d" d="M300 -12Q239 -12 193 3.5Q147 19 116.5 46Q86 73 70.5 110Q55 147 55 190Q55 262 94 304Q133 346 197 363V371Q141 390 108.5 432.5Q76 475 76 535Q76 615 135 662.5Q194 710 300 710Q406 710 465 662.5Q524 615 524 535Q524 475 491.5 432.5Q459 390 403 371V363Q467 346 506 304Q545 262 545 190Q545 147 529.5 110Q514 73 483 46Q452 19 406.5 3.5Q361 -12 300 -12ZM300 59Q374 59 416 92Q458 125 458 185V207Q458 267 416.5 300Q375 333 300 333Q225 333 183.5 300Q142 267 142 207V185Q142 125 184 92Q226 59 300 59ZM300 401Q368 401 403.5 430Q439 459 439 513V527Q439 581 402.5 610Q366 639 300 639Q234 639 197.5 610Q161 581 161 527V513Q161 459 196.5 430Q232 401 300 401Z"/><path id="m3e" d="M300 235Q259 235 242.5 252Q226 269 226 295V313Q226 339 242.5 356Q259 373 300 373Q341 373 357.5 356Q374 339 374 313V295Q374 269 357.5 252Q341 235 300 235Z"/></defs><g class="ink" transform="translate(-12.6 232) scale(0.30726 -0.30726)"><use href="#s0"/><use href="#s1" x="407"/><use href="#s2" x="877"/><use href="#s3" x="1331"/><use href="#s4" x="1730" class="accent"/><use href="#s5" x="1730" class="ink"/><use href="#s6" x="1953"/><use href="#s7" x="2355"/><use href="#s8" x="2575"/></g><g class="ink" transform="translate(0 326) scale(0.018 -0.018)"><use href="#b9"/><use href="#ba" x="600"/><use href="#bb" x="1200"/><use href="#bc" x="1800"/><use href="#bd" x="2400"/><use href="#be" x="3000"/><use href="#b10" x="4200"/><use href="#b11" x="4800"/><use href="#b12" x="5400"/><use href="#b13" x="6000"/><use href="#ba" x="6600"/><use href="#bb" x="7200"/><use href="#b14" x="7800"/><use href="#ba" x="9000"/><use href="#bb" x="9600"/><use href="#b15" x="10200"/><use href="#bc" x="10800"/><use href="#bb" x="11400"/><use href="#ba" x="12000"/><use href="#ba" x="12600"/><use href="#be" x="13200"/></g><g class="mute" transform="translate(458.8 326) scale(0.018 -0.018)"><use href="#m16"/><use href="#m17" x="600"/><use href="#m18" x="1200"/><use href="#m19" x="1800"/><use href="#m18" x="2400"/><use href="#m1a" x="3000"/><use href="#m19" x="3600"/><use href="#m1b" x="4200"/><use href="#m16" x="5400"/><use href="#m1d" x="6000"/><use href="#m16" x="6600"/><use href="#m1e" x="7200"/><use href="#m1b" x="7800"/><use href="#m1f" x="8400"/><use href="#m16" x="9000"/><use href="#m20" x="10200"/><use href="#m16" x="11400"/><use href="#m21" x="12000"/><use href="#m22" x="12600"/><use href="#m1e" x="13200"/><use href="#m23" x="13800"/><use href="#m18" x="14400"/><use href="#m24" x="15000"/><use href="#m1b" x="15600"/><use href="#m1e" x="16800"/><use href="#m25" x="17400"/><use href="#m18" x="18000"/><use href="#m1e" x="18600"/><use href="#m1e" x="19800"/><use href="#m25" x="20400"/><use href="#m26" x="21000"/><use href="#m27" x="21600"/><use href="#m28" x="22200"/><use href="#m16" x="22800"/></g><path class="hair" d="M0 348.5H880"/><g class="mute" transform="translate(0 378) scale(0.013 -0.013)"><use href="#m16"/><use href="#m29" x="600"/><use href="#m18" x="1200"/><use href="#m27" x="1800"/></g><g class="mute" transform="translate(280 378) scale(0.013 -0.013)"><use href="#m2a"/></g><g class="mute" transform="translate(393.3 378) scale(0.013 -0.013)"><use href="#m2b"/><use href="#m2c" x="600"/><use href="#m2a" x="1200"/></g><g class="mute" transform="translate(518.3 378) scale(0.013 -0.013)"><use href="#m2c"/><use href="#m2a" x="600"/><use href="#m2a" x="1200"/></g><g class="mute" transform="translate(643.3 378) scale(0.013 -0.013)"><use href="#m2d"/><use href="#m2c" x="600"/><use href="#m2a" x="1200"/></g><g class="mute" transform="translate(756.6 378) scale(0.013 -0.013)"><use href="#m2e"/><use href="#m2a" x="600"/><use href="#m2a" x="1200"/><use href="#m2a" x="1800"/><use href="#m1f" x="2400"/><use href="#m16" x="3000"/></g><path class="rule" d="M280.5 394V652M405.5 394V652M530.5 394V652M655.5 394V559M655.5 597V652M780.5 394V623"/><g class="ink in" transform="translate(0 423.28) scale(0.016 -0.016)" style="animation-delay:0.35s"><use href="#b2f"/><use href="#b30" x="600"/><use href="#b31" x="1200"/><use href="#b32" x="2400"/><use href="#b33" x="3000"/><use href="#b34" x="3600"/><use href="#b35" x="4200"/><use href="#b11" x="4800"/><use href="#bc" x="5400"/><use href="#b15" x="6000"/><use href="#b36" x="6600"/><use href="#ba" x="7200"/></g><rect class="ink bar" x="280" y="413" width="500" height="10" style="animation-delay:0.35s;animation-duration:2.2s"/><g class="mute in" transform="translate(788 423.28) scale(0.013 -0.013)" style="animation-delay:2.55s"><use href="#m2e"/><use href="#m37" x="600"/><use href="#m2a" x="1200"/><use href="#m2a" x="1800"/><use href="#m16" x="2400"/></g><g class="ink in" transform="translate(22 455.28) scale(0.016 -0.016)" style="animation-delay:0.37s"><use href="#m1a"/><use href="#m18" x="600"/><use href="#m17" x="1200"/><use href="#m28" x="1800"/><use href="#m1b" x="2400"/><use href="#m27" x="3000"/><use href="#m38" x="3600"/><use href="#m37" x="4200"/><use href="#m18" x="4800"/><use href="#m24" x="5400"/><use href="#m17" x="6000"/><use href="#m25" x="6600"/><use href="#m26" x="7200"/><use href="#m1e" x="7800"/><use href="#m1b" x="8400"/><use href="#m17" x="9000"/><use href="#m1e" x="9600"/><use href="#m39" x="10200"/><use href="#m24" x="10800"/><use href="#m1b" x="11400"/></g><rect class="ink bar" x="285" y="445" width="255" height="10" style="animation-delay:0.37s;animation-duration:1.12s"/><g class="mute in" transform="translate(548 455.28) scale(0.013 -0.013)" style="animation-delay:1.49s"><use href="#m2c"/><use href="#m2e" x="600"/><use href="#m2a" x="1200"/><use href="#m1f" x="1800"/><use href="#m16" x="2400"/></g><g class="ink in" transform="translate(44 487.28) scale(0.016 -0.016)" style="animation-delay:0.44s"><use href="#m38"/><use href="#m26" x="600"/><use href="#m16" x="1200"/><use href="#m1e" x="1800"/><use href="#m24" x="2400"/><use href="#m26" x="3000"/><use href="#m1a" x="3600"/><use href="#m39" x="4200"/><use href="#m1e" x="4800"/><use href="#m1b" x="5400"/><use href="#m38" x="6000"/><use href="#m37" x="6600"/><use href="#m16" x="7200"/><use href="#m1d" x="7800"/><use href="#m16" x="8400"/><use href="#m1e" x="9000"/><use href="#m1b" x="9600"/><use href="#m1f" x="10200"/><use href="#m16" x="10800"/></g><rect class="ink bar" x="300" y="477" width="145" height="10" style="animation-delay:0.44s;animation-duration:0.64s"/><g class="mute in" transform="translate(453 487.28) scale(0.013 -0.013)" style="animation-delay:1.08s"><use href="#m2b"/><use href="#m3a" x="600"/><use href="#m2a" x="1200"/><use href="#m1f" x="1800"/><use href="#m16" x="2400"/></g><g class="ink in" transform="translate(44 519.28) scale(0.016 -0.016)" style="animation-delay:0.9s"><use href="#m29"/><use href="#m1b" x="600"/><use href="#m24" x="1200"/><use href="#m22" x="1800"/><use href="#m21" x="2400"/><use href="#m24" x="3000"/><use href="#m1f" x="3600"/><use href="#m18" x="4200"/><use href="#m27" x="4800"/><use href="#m17" x="5400"/><use href="#m1b" x="6000"/><use href="#m37" x="6600"/><use href="#m1e" x="7200"/><use href="#m39" x="7800"/><use href="#m27" x="8400"/><use href="#m26" x="9000"/><use href="#m27" x="9600"/><use href="#m3b" x="10200"/></g><rect class="ink bar" x="405" y="509" width="125" height="10" style="animation-delay:0.9s;animation-duration:0.55s"/><g class="mute in" transform="translate(538 519.28) scale(0.013 -0.013)" style="animation-delay:1.45s"><use href="#m2b"/><use href="#m2c" x="600"/><use href="#m2a" x="1200"/><use href="#m1f" x="1800"/><use href="#m16" x="2400"/></g><g class="ink in" transform="translate(22 551.28) scale(0.016 -0.016)" style="animation-delay:1.23s"><use href="#m22"/><use href="#m39" x="600"/><use href="#m19" x="1200"/><use href="#m19" x="1800"/><use href="#m16" x="2400"/><use href="#m1e" x="3000"/><use href="#m18" x="3600"/><use href="#m17" x="4200"/><use href="#m28" x="4800"/><use href="#m37" x="5400"/><use href="#m23" x="6000"/><use href="#m1b" x="6600"/><use href="#m1a" x="7200"/></g><rect class="ink bar" x="480" y="541" width="105" height="10" style="animation-delay:1.23s;animation-duration:0.46s"/><g class="mute in" transform="translate(593 551.28) scale(0.013 -0.013)" style="animation-delay:1.69s"><use href="#m2b"/><use href="#m2e" x="600"/><use href="#m2a" x="1200"/><use href="#m1f" x="1800"/><use href="#m16" x="2400"/></g><g class="ink in" transform="translate(22 583.28) scale(0.016 -0.016)" style="animation-delay:1.49s"><use href="#m38"/><use href="#m18" x="600"/><use href="#m1e" x="1200"/><use href="#m18" x="1800"/><use href="#m37" x="2400"/><use href="#m29" x="3000"/><use href="#m26" x="3600"/><use href="#m29" x="4200"/><use href="#m1b" x="4800"/><use href="#m19" x="5400"/><use href="#m26" x="6000"/><use href="#m27" x="6600"/><use href="#m1b" x="7200"/><use href="#m16" x="7800"/></g><rect class="ink bar" x="540" y="573" width="100" height="10" style="animation-delay:1.49s;animation-duration:0.44s"/><g class="mute in" transform="translate(648 583.28) scale(0.013 -0.013)" style="animation-delay:1.93s"><use href="#m2b"/><use href="#m2a" x="600"/><use href="#m2a" x="1200"/><use href="#m1f" x="1800"/><use href="#m16" x="2400"/></g><g class="ink in" transform="translate(22 615.28) scale(0.016 -0.016)" style="animation-delay:1.71s"><use href="#m1f"/><use href="#m19" x="600"/><use href="#m37" x="1200"/><use href="#m38" x="1800"/><use href="#m1b" x="2400"/><use href="#m1b" x="3000"/><use href="#m29" x="3600"/><use href="#m3c" x="4200"/><use href="#m19" x="4800"/><use href="#m1b" x="5400"/><use href="#m18" x="6000"/><use href="#m24" x="6600"/><use href="#m27" x="7200"/><use href="#m26" x="7800"/><use href="#m27" x="8400"/><use href="#m3b" x="9000"/></g><rect class="ink bar" x="590" y="605" width="110" height="10" style="animation-delay:1.71s;animation-duration:0.48s"/><g class="mute in" transform="translate(708 615.28) scale(0.013 -0.013)" style="animation-delay:2.2s"><use href="#m2b"/><use href="#m2b" x="600"/><use href="#m2a" x="1200"/><use href="#m1f" x="1800"/><use href="#m16" x="2400"/></g><g class="ink in" transform="translate(22 647.28) scale(0.016 -0.016)" style="animation-delay:2.02s"><use href="#m19"/><use href="#m19" x="600"/><use href="#m1f" x="1200"/><use href="#m37" x="1800"/><use href="#m24" x="2400"/><use href="#m18" x="3000"/><use href="#m3b" x="3600"/><use href="#m37" x="4200"/><use href="#m18" x="4800"/><use href="#m3b" x="5400"/><use href="#m1b" x="6000"/><use href="#m27" x="6600"/><use href="#m1e" x="7200"/><use href="#m16" x="7800"/></g><rect class="accent bar" x="660" y="637" width="95" height="10" style="animation-delay:2.02s;animation-duration:0.42s"/><rect class="accent cursor" x="759" y="634" width="7" height="16" style="animation-delay:2.44s"/><g class="accent in" transform="translate(773 647.28) scale(0.014 -0.014)" style="animation-delay:2.44s"><use href="#m16"/><use href="#m1e" x="600"/><use href="#m24" x="1200"/><use href="#m1b" x="1800"/><use href="#m18" x="2400"/><use href="#m1f" x="3000"/><use href="#m26" x="3600"/><use href="#m27" x="4200"/><use href="#m3b" x="4800"/></g><path class="wire in" style="animation-delay:0.37s" d="M5.5 427.6V450H16"/><path class="wire in" style="animation-delay:0.44s" d="M27.5 459.6V482H38"/><path class="wire in" style="animation-delay:0.9s" d="M27.5 459.6V514H38"/><path class="wire in" style="animation-delay:1.23s" d="M5.5 427.6V546H16"/><path class="wire in" style="animation-delay:1.49s" d="M5.5 427.6V578H16"/><path class="wire in" style="animation-delay:1.71s" d="M5.5 427.6V610H16"/><path class="wire in" style="animation-delay:2.02s" d="M5.5 427.6V642H16"/><path class="hair" d="M0 674.5H880"/><g class="mute" transform="translate(0 700) scale(0.013 -0.013)"><use href="#m3d"/><use href="#m16" x="1200"/><use href="#m29" x="1800"/><use href="#m18" x="2400"/><use href="#m27" x="3000"/><use href="#m16" x="3600"/><use href="#m3e" x="4800"/><use href="#m2e" x="6000"/><use href="#m16" x="7200"/><use href="#m1e" x="7800"/><use href="#m26" x="8400"/><use href="#m19" x="9000"/><use href="#m19" x="9600"/><use href="#m21" x="10800"/><use href="#m29" x="11400"/><use href="#m1b" x="12000"/><use href="#m27" x="12600"/></g><g class="mute" transform="translate(770.8 700) scale(0.013 -0.013)"><use href="#m1e"/><use href="#m24" x="600"/><use href="#m18" x="1200"/><use href="#m17" x="1800"/><use href="#m1b" x="2400"/><use href="#m2c" x="3600"/><use href="#m25" x="4200"/><use href="#m39" x="4800"/><use href="#m18" x="5400"/><use href="#m2e" x="6000"/><use href="#m3b" x="6600"/><use href="#m2e" x="7200"/><use href="#m1b" x="7800"/></g></svg>
