<svg xmlns="http://www.w3.org/2000/svg" width="880" height="254" viewBox="0 0 880 254" role="img" aria-labelledby="title desc"><title id="title">Principles</title><desc id="desc">Write code that scales. Build systems that last. Never stop learning.</desc><style>.ink{fill:#e6edf3}.mute{fill:#9198a1}.accent{fill:#ff7452}.rule{stroke:#3d444d;stroke-width:1;fill:none}.wire{stroke:#9198a1;stroke-width:1;fill:none}.hair{stroke:#e6edf3;stroke-width:1;fill:none}@media (prefers-reduced-motion:reduce){*{animation:none!important}}</style><defs><path id="m0" d="M300 -12Q236 -12 190 12.5Q144 37 114 83Q84 129 70 196Q56 263 56 349Q56 434 70 501.5Q84 569 114 615Q144 661 190 685.5Q236 710 300 710Q364 710 410 685.5Q456 661 486 615Q516 569 530 501.5Q544 434 544 349Q544 263 530 196Q516 129 486 83Q456 37 410 12.5Q364 -12 300 -12ZM300 61Q342 61 372 77.5Q402 94 420.5 124Q439 154 448 196.5Q457 239 457 292V406Q457 458 448 501Q439 544 420.5 574Q402 604 372 620.5Q342 637 300 637Q258 637 228 620.5Q198 604 179.5 574Q161 544 152 501Q143 458 143 406V292Q143 239 152 196.5Q161 154 179.5 124Q198 94 228 77.5Q258 61 300 61ZM300 290Q265 290 251.5 304Q238 318 238 338V360Q238 380 251.5 394Q265 408 300 408Q335 408 348.5 394Q362 380 362 360V338Q362 318 348.5 304Q335 290 300 290Z"/><path id="m1" d="M85 0V73H285V636H278L102 472L53 525L238 698H369V73H553V0Z"/><path id="s2" d="M432 -10Q428 -10 424 -7Q420 -4 418 6L341 316Q340 324 335 323.5Q330 323 328 316L242 6Q239 -4 235.5 -7Q232 -10 228 -10Q224 -10 219.5 -7Q215 -4 213 6L55 640Q48 668 39.5 679Q31 690 11 694L-4 697Q-18 700 -18 710Q-18 720 -3 720H158Q172 720 172 709Q172 700 157 697L146 695Q129 692 124.5 683.5Q120 675 125 653L243 165Q245 158 249.5 158Q254 158 256 165L301 328Q312 366 312 398Q312 430 302 469L260 640Q253 668 246.5 680Q240 692 229 694L214 697Q200 700 200 710Q200 720 215 720H352Q366 720 366 709Q366 700 351 697L340 695Q327 693 324.5 684Q322 675 327 653L361 510Q363 503 367.5 503Q372 503 374 510L410 632Q421 670 418.5 682Q416 694 407 695L396 697Q381 700 381 709Q381 720 395 720H490Q507 720 507 709Q507 699 490 697L479 696Q466 695 457.5 680Q449 665 439 631L401 500Q390 463 389.5 430.5Q389 398 398 359L443 171Q445 164 449.5 164Q454 164 455 171L570 632Q584 690 552 695L541 697Q526 700 526 710Q526 720 540 720H652Q669 720 669 709Q669 699 652 697L641 696Q628 695 618.5 680.5Q609 666 601 631L446 6Q444 -4 440 -7Q436 -10 432 -10Z"/><path id="s3" d="M154 446Q195 516 253 516Q286 516 302 496.5Q318 477 318 453Q318 434 308.5 422Q299 410 279 410Q263 410 255.5 417.5Q248 425 243.5 435Q239 445 233 452.5Q227 460 213 460Q195 460 179 438.5Q163 417 152.5 381Q142 345 142 299V67Q142 46 148.5 37Q155 28 176 26L203 23Q214 21 214 12Q214 0 199 0H30Q15 0 15 11Q15 20 28 23L40 25Q61 29 67.5 37.5Q74 46 74 67V403Q74 421 68.5 427.5Q63 434 49 436L28 439Q15 440 15 450Q15 458 31 461Q62 466 78.5 477Q95 488 113 504Q122 513 128 513Q137 513 137 501V447Q137 440 143 438.5Q149 437 154 446Z"/><path id="s4" d="M114 605Q93 605 78.5 620Q64 635 64 658Q64 681 78.5 695.5Q93 710 114 710Q135 710 149 695.5Q163 681 163 658Q163 635 149 620Q135 605 114 605ZM30 0Q15 0 15 11Q15 20 28 23L40 25Q65 29 72 37.5Q79 46 79 67V403Q79 421 73.5 427.5Q68 434 54 436L33 439Q20 440 20 450Q20 458 36 461Q67 466 86 477Q105 488 123 504Q132 513 138 513Q147 513 147 501V67Q147 46 153 37Q159 28 176 26L201 23Q212 21 212 12Q212 0 197 0Z"/><path id="s5" d="M147 -9Q112 -9 89.5 15.5Q67 40 67 96V470Q67 482 55 482H26Q10 482 10 494Q10 502 19 508Q52 531 72 557.5Q92 584 107 630Q114 651 124 651Q135 651 135 635V524Q135 510 149 510H214Q230 510 230 496Q230 482 214 482H149Q135 482 135 468V95Q135 73 142 60.5Q149 48 168 48Q189 48 202.5 69Q216 90 220 137Q222 151 233 151Q245 151 245 136Q242 59 213.5 25Q185 -9 147 -9Z"/><path id="s6" d="M192 -9Q144 -9 106 23Q68 55 45.5 113.5Q23 172 23 249Q23 328 46 388Q69 448 109 482Q149 516 198 516Q257 516 293.5 467.5Q330 419 330 310Q330 277 305 277H115Q95 277 95 254Q95 148 126 95Q157 42 205 42Q243 42 267 69Q291 96 306 160Q309 171 319 171Q331 171 328 151Q312 62 277 26.5Q242 -9 192 -9ZM112 302H213Q261 302 261 352Q261 417 245 454Q229 491 197 491Q158 491 131.5 446Q105 401 97 318Q95 302 112 302Z"/><path id="s8" d="M180 -9Q136 -9 100.5 20.5Q65 50 44 105Q23 160 23 236Q23 321 48.5 384Q74 447 118 481.5Q162 516 216 516Q262 516 288 498Q298 491 298 476L300 354Q300 339 288 339Q277 339 274 352Q260 407 247 437Q234 467 220 478.5Q206 490 189 490Q169 490 147.5 467Q126 444 111.5 392.5Q97 341 97 257Q97 150 124.5 96Q152 42 196 42Q231 42 254.5 71Q278 100 295 176Q298 187 307 187Q319 187 316 167Q305 97 285.5 58.5Q266 20 239.5 5.5Q213 -9 180 -9Z"/><path id="s9" d="M203 -9Q152 -9 111.5 25.5Q71 60 47 120Q23 180 23 254Q23 328 47 387Q71 446 112 481Q153 516 203 516Q254 516 294.5 481Q335 446 359 387Q383 328 383 254Q383 180 359.5 120Q336 60 295 25.5Q254 -9 203 -9ZM203 16Q307 16 307 254Q307 491 203 491Q99 491 99 254Q99 16 203 16Z"/><path id="sa" d="M181 -9Q137 -9 102.5 21.5Q68 52 49 106.5Q30 161 30 233Q30 317 56 380.5Q82 444 128 480Q174 516 232 516Q246 516 260 513.5Q274 511 287 505Q303 497 303 512V640Q303 658 297.5 665Q292 672 278 673L252 676Q241 678 241 688Q241 698 252 700Q284 706 303.5 714Q323 722 336 730Q352 740 360 740Q371 740 371 724V95Q371 53 392 53Q405 53 416 70.5Q427 88 427 130Q427 146 440 146Q452 146 452 129Q452 56 427 23.5Q402 -9 370 -9Q341 -9 326 10.5Q311 30 306 57Q305 65 299 65.5Q293 66 288 58Q260 19 237 5Q214 -9 181 -9ZM203 37Q229 37 251.5 54.5Q274 72 288.5 102Q303 132 303 169V394Q303 439 282.5 465Q262 491 229 491Q173 491 138.5 425.5Q104 360 104 247Q104 144 130.5 90.5Q157 37 203 37Z"/><path id="sb" d="M27 0Q15 0 15 11Q15 21 26 23L40 25Q61 28 67.5 37Q74 46 74 67V640Q74 658 68.5 664.5Q63 671 49 673L28 676Q17 678 17 688Q17 698 28 700Q56 706 75 714Q94 722 107 730Q123 740 131 740Q142 740 142 724V459Q142 450 148 448.5Q154 447 163 455Q201 490 230 503Q259 516 291 516Q338 516 365 484.5Q392 453 392 392V67Q392 46 398.5 37.5Q405 29 426 26L448 23Q459 21 459 11Q459 0 447 0H279Q265 0 265 11Q265 21 276 23L290 25Q311 28 317.5 37Q324 46 324 67V381Q324 430 306 450Q288 470 255 470Q223 470 197.5 451.5Q172 433 157 402.5Q142 372 142 335V67Q142 46 148.5 37Q155 28 176 26L203 23Q214 21 214 11Q214 0 202 0Z"/><path id="sc" d="M120 -9Q78 -9 51 17.5Q24 44 24 88Q24 131 51 169.5Q78 208 125 239Q172 270 232 289Q245 293 245 306V397Q245 445 230 465.5Q215 486 189 486Q164 486 143.5 463.5Q123 441 114 388Q109 356 92.5 341.5Q76 327 59 327Q31 327 31 355Q31 384 47.5 412.5Q64 441 91 464.5Q118 488 150 502Q182 516 214 516Q313 516 313 401V95Q313 53 334 53Q347 53 358 70.5Q369 88 369 130Q369 146 382 146Q394 146 394 129Q394 56 368.5 23.5Q343 -9 311 -9Q287 -9 273 10.5Q259 30 254 57Q253 67 245.5 67.5Q238 68 231 58Q207 25 182 8Q157 -9 120 -9ZM147 37Q173 37 195 55.5Q217 74 231 105Q245 136 245 175V248Q245 267 224 259Q163 237 129.5 198.5Q96 160 96 106Q96 37 147 37Z"/><path id="sd" d="M131 -9Q108 -9 82 -3.5Q56 2 40 10Q31 15 31 27L28 139Q28 156 41 156Q52 156 56 140Q73 69 97.5 43Q122 17 157 17Q186 17 205 39.5Q224 62 224 102Q224 142 202 173Q180 204 128 241Q76 276 52 311.5Q28 347 28 389Q28 446 68 481Q108 516 174 516Q194 516 213 511.5Q232 507 247 497Q256 491 256 481L258 371Q258 356 246 356Q239 356 236 360.5Q233 365 231 372Q211 437 191 462.5Q171 488 142 488Q116 488 99 470Q82 452 82 425Q82 390 103 364Q124 338 179 300Q229 264 254.5 222.5Q280 181 280 132Q280 68 239 29.5Q198 -9 131 -9Z"/><path id="se" d="M20 0Q8 0 8 11Q8 21 19 23L33 25Q54 28 64 37Q74 46 74 67V640Q74 658 68.5 665Q63 672 49 673L26 676Q15 678 15 688Q15 698 26 700Q54 706 74 714Q94 722 107 730Q123 740 131 740Q142 740 142 724V67Q142 46 148.5 37.5Q155 29 176 26L199 23Q210 21 210 11Q210 0 198 0Z"/><path id="sf" d="M107 -9Q85 -9 69.5 5.5Q54 20 54 44Q54 67 69.5 81.5Q85 96 107 96Q127 96 143 81.5Q159 67 159 44Q159 20 143 5.5Q127 -9 107 -9Z"/><path id="m10" d="M300 -12Q236 -12 190 12.5Q144 37 114 83Q84 129 70 196Q56 263 56 349Q56 434 70 501.5Q84 569 114 615Q144 661 190 685.5Q236 710 300 710Q364 710 410 685.5Q456 661 486 615Q516 569 530 501.5Q544 434 544 349Q544 263 530 196Q516 129 486 83Q456 37 410 12.5Q364 -12 300 -12ZM300 61Q342 61 371 77.5Q400 94 419 124Q438 154 446.5 196.5Q455 239 455 292V406Q455 458 446.5 501Q438 544 419 574Q400 604 371 620.5Q342 637 300 637Q258 637 229 620.5Q200 604 181 574Q162 544 153.5 501Q145 458 145 406V292Q145 239 153.5 196.5Q162 154 181 124Q200 94 229 77.5Q258 61 300 61Z"/><path id="m11" d="M205 311Q205 384 221.5 451.5Q238 519 266.5 577Q295 635 333 681.5Q371 728 413 760H494Q450 727 411.5 683.5Q373 640 343.5 588.5Q314 537 297 477.5Q280 418 280 354V268Q280 204 297 144.5Q314 85 343.5 33.5Q373 -18 411.5 -61.5Q450 -105 494 -138H413Q371 -107 333 -60Q295 -13 266.5 45Q238 103 221.5 170.5Q205 238 205 311Z"/><path id="m12" d="M80 68H260V672H80V740H340V68H520V0H80Z"/><path id="m13" d="M300 -12Q246 -12 202.5 7Q159 26 128.5 61.5Q98 97 82 146.5Q66 196 66 258Q66 319 82 369Q98 419 128.5 454.5Q159 490 202.5 509Q246 528 300 528Q354 528 397.5 509Q441 490 471.5 454.5Q502 419 518 369Q534 319 534 258Q534 196 518 146.5Q502 97 471.5 61.5Q441 26 397.5 7Q354 -12 300 -12ZM300 57Q367 57 408 97Q449 137 449 221V295Q449 379 408 419Q367 459 300 459Q233 459 192 419Q151 379 151 295V221Q151 137 192 97Q233 57 300 57Z"/><path id="m14" d="M561 -59Q561 -137 496 -174.5Q431 -212 301 -212Q176 -212 121.5 -179Q67 -146 67 -84Q67 -42 89 -19Q111 4 151 15V27Q129 38 117 55Q105 72 105 98Q105 138 131.5 158Q158 178 198 188V192Q150 213 123.5 254Q97 295 97 350Q97 389 111 422Q125 455 151.5 478.5Q178 502 215 515Q252 528 297 528Q355 528 399 507V516Q399 546 413 566Q427 586 461 586H556V516H440V481Q468 457 483 424Q498 391 498 350Q498 311 483.5 278Q469 245 443 221.5Q417 198 379.5 185Q342 172 297 172Q284 172 272 173Q260 174 248 176Q236 174 223 169.5Q210 165 199 157.5Q188 150 181 140Q174 130 174 117Q174 94 197 86.5Q220 79 257 79H371Q471 79 516 41.5Q561 4 561 -59ZM486 -63Q486 -32 461 -13.5Q436 5 374 5H195Q143 -16 143 -65Q143 -99 170 -123.5Q197 -148 260 -148H338Q408 -148 447 -126.5Q486 -105 486 -63ZM297 234Q357 234 385.5 262Q414 290 414 336V365Q414 411 385.5 438.5Q357 466 297 466Q237 466 209 438.5Q181 411 181 365V336Q181 290 209 262Q237 234 297 234Z"/><path id="m16" d="M98 0V516H178V432H182Q190 451 202 468.5Q214 486 231.5 499Q249 512 273 520Q297 528 329 528Q410 528 459 476.5Q508 425 508 331V0H428V317Q428 388 397 422.5Q366 457 306 457Q282 457 259 451Q236 445 218 433Q200 421 189 402Q178 383 178 358V0Z"/><path id="m17" d="M395 311Q395 238 378.5 170.5Q362 103 333.5 45Q305 -13 267 -60Q229 -107 187 -138H106Q149 -105 188 -61.5Q227 -18 256.5 33.5Q286 85 303 144.5Q320 204 320 268V354Q320 418 303 477.5Q286 537 256.5 588.5Q227 640 188 683.5Q149 727 106 760H187Q229 728 267 681.5Q305 635 333.5 577Q362 519 378.5 451.5Q395 384 395 311Z"/><path id="m18" d="M537 0H71V86L304 296Q355 342 388 390.5Q421 439 421 493V505Q421 568 388 602.5Q355 637 290 637Q226 637 191.5 604.5Q157 572 140 518L65 546Q75 577 92.5 606.5Q110 636 137 659Q164 682 202.5 696Q241 710 292 710Q344 710 384.5 695Q425 680 452.5 653Q480 626 494.5 589Q509 552 509 508Q509 468 497.5 433Q486 398 465.5 366Q445 334 416.5 303.5Q388 273 353 243L158 73H537Z"/><path id="s19" d="M34 0Q19 0 19 11Q19 20 32 23L55 27Q76 31 82.5 38Q89 45 89 66V654Q89 675 82.5 682Q76 689 55 693L32 697Q19 700 19 709Q19 720 34 720H237Q287 720 326 699Q365 678 387.5 642Q410 606 410 560Q410 515 383.5 476.5Q357 438 307 412Q301 409 301 404Q301 399 308 397Q376 374 413 323.5Q450 273 450 204Q450 145 423 98.5Q396 52 348.5 26Q301 0 241 0ZM213 411Q266 411 301.5 452.5Q337 494 337 556Q337 618 303 656.5Q269 695 213 695Q160 695 160 655V466Q160 437 172.5 424Q185 411 213 411ZM228 25Q293 25 334 74.5Q375 124 375 207Q375 290 333.5 338Q292 386 222 386Q160 386 160 337V94Q160 25 228 25Z"/><path id="s1a" d="M171 -9Q146 -9 123 2Q100 13 85 37Q70 61 70 101V449Q70 467 64.5 474Q59 481 45 482L28 484Q11 486 11 497Q11 510 30 510H123Q138 510 138 495V122Q138 76 155.5 56.5Q173 37 204 37Q235 37 259 54.5Q283 72 297.5 101.5Q312 131 312 166V449Q312 467 306.5 474Q301 481 287 482L270 484Q253 486 253 497Q253 510 272 510H365Q380 510 380 495V107Q380 89 385.5 82.5Q391 76 405 74L426 71Q439 70 439 61Q439 52 423 49Q392 45 373.5 33Q355 21 341 4Q332 -5 326 -5Q317 -5 317 7V53Q317 61 311.5 62.5Q306 64 300 58Q263 21 234.5 6Q206 -9 171 -9Z"/><path id="s1b" d="M83 -205Q56 -205 40 -186.5Q24 -168 24 -144Q24 -125 35 -112Q46 -99 65 -99Q81 -99 88 -106Q95 -113 98 -122Q101 -131 104 -138Q107 -145 116 -145Q127 -145 136 -129.5Q145 -114 161 -64Q171 -34 173.5 -12Q176 10 172.5 35Q169 60 157 96L48 443Q41 467 34.5 474Q28 481 14 484L-1 487Q-14 490 -14 500Q-14 510 0 510H165Q179 510 179 500Q179 489 166 487L150 485Q126 482 119.5 473.5Q113 465 120 443L208 150Q211 140 217.5 140Q224 140 227 150L312 425Q320 452 316.5 465.5Q313 479 288 483L267 487Q254 490 254 500Q254 510 268 510H395Q409 510 409 499Q409 489 397 485L388 482Q373 477 363 464Q353 451 342 419L193 -46Q171 -116 153.5 -150Q136 -184 120 -194.5Q104 -205 83 -205Z"/><path id="s1c" d="M30 0Q15 0 15 11Q15 20 28 23L40 25Q61 29 67.5 37.5Q74 46 74 67V403Q74 421 68.5 427.5Q63 434 49 436L28 439Q15 440 15 450Q15 458 31 461Q62 466 78.5 477Q95 488 113 504Q122 513 128 513Q137 513 137 501V456Q137 449 143 445.5Q149 442 156 449Q197 488 227.5 502Q258 516 289 516Q318 516 340.5 500.5Q363 485 374 454Q377 446 384.5 444.5Q392 443 399 450Q440 488 470 502Q500 516 531 516Q573 516 599.5 484.5Q626 453 626 392V67Q626 46 632.5 37.5Q639 29 660 26L682 23Q693 21 693 11Q693 0 681 0H510Q496 0 496 11Q496 21 507 23L521 25Q544 28 551 37Q558 46 558 67V381Q558 430 540.5 450Q523 470 493 470Q463 470 438.5 451.5Q414 433 399 402.5Q384 372 384 335V67Q384 46 391 37.5Q398 29 420 26L442 23Q453 21 453 11Q453 0 441 0H271Q257 0 257 11Q257 21 268 23L282 25Q303 28 309.5 37Q316 46 316 67V381Q316 430 298.5 450Q281 470 251 470Q221 470 196.5 451.5Q172 433 157 402.5Q142 372 142 335V67Q142 46 148.5 37Q155 28 176 26L203 23Q214 21 214 12Q214 0 199 0Z"/><path id="m1d" d="M536 442Q536 364 512.5 295.5Q489 227 452 170.5Q415 114 370.5 70.5Q326 27 283 0H175Q232 41 276.5 80Q321 119 355 161.5Q389 204 412 252.5Q435 301 450 362L445 364Q419 321 378.5 292.5Q338 264 273 264Q227 264 188.5 279Q150 294 122.5 322Q95 350 79.5 389.5Q64 429 64 479Q64 530 80.5 572.5Q97 615 128 645.5Q159 676 202.5 693Q246 710 299 710Q354 710 398 691.5Q442 673 472.5 638.5Q503 604 519.5 554Q536 504 536 442ZM300 333Q372 333 411.5 372Q451 411 451 482V490Q451 561 411.5 600Q372 639 300 639Q228 639 188.5 600Q149 561 149 490V482Q149 411 188.5 372Q228 333 300 333Z"/><path id="m1e" d="M300 -9Q259 -9 242.5 8Q226 25 226 51V69Q226 95 242.5 112Q259 129 300 129Q341 129 357.5 112Q374 95 374 69V51Q374 25 357.5 8Q341 -9 300 -9Z"/><path id="m1f" d="M169 356Q103 356 61.5 400.5Q20 445 20 533Q20 621 61.5 665.5Q103 710 169 710Q235 710 276.5 665.5Q318 621 318 533Q318 445 276.5 400.5Q235 356 169 356ZM169 410Q205 410 227.5 435Q250 460 250 508V558Q250 606 227.5 631Q205 656 169 656Q133 656 110.5 631Q88 606 88 558V508Q88 460 110.5 435Q133 410 169 410ZM510 698H582L422 398H350ZM178 300H250L90 0H18ZM431 -12Q365 -12 323.5 32.5Q282 77 282 165Q282 253 323.5 297.5Q365 342 431 342Q497 342 538.5 297.5Q580 253 580 165Q580 77 538.5 32.5Q497 -12 431 -12ZM431 42Q467 42 489.5 67Q512 92 512 140V190Q512 238 489.5 263Q467 288 431 288Q395 288 372.5 263Q350 238 350 190V140Q350 92 372.5 67Q395 42 431 42Z"/><path id="m20" d="M270 402Q343 402 379.5 434.5Q416 467 416 518V525Q416 581 380.5 609Q345 637 288 637Q232 637 197.5 612.5Q163 588 141 548L78 596Q91 617 110 637.5Q129 658 154.5 674Q180 690 213.5 700Q247 710 290 710Q335 710 374 698.5Q413 687 442 664.5Q471 642 487.5 609Q504 576 504 534Q504 500 493.5 473Q483 446 464.5 426Q446 406 421 392Q396 378 368 371V367Q397 361 424 347.5Q451 334 472 312.5Q493 291 505.5 260.5Q518 230 518 191Q518 146 500.5 108.5Q483 71 451.5 44.5Q420 18 375.5 3Q331 -12 277 -12Q231 -12 195.5 -2Q160 8 132.5 25Q105 42 84.5 63Q64 84 48 107L111 155Q125 134 140 117Q155 100 174.5 87.5Q194 75 219 68Q244 61 277 61Q351 61 390.5 95Q430 129 430 192V200Q430 262 391.5 296Q353 330 276 330H193V402Z"/><path id="s21" d="M429 -9Q413 -9 402 15L131 603Q128 610 123.5 609Q119 608 119 600V86Q119 58 128.5 43.5Q138 29 163 25L176 23Q189 22 189 11Q189 0 174 0H31Q16 0 16 11Q16 22 29 23L42 25Q68 29 78 43.5Q88 58 88 86V654Q88 675 81.5 682Q75 689 52 693L29 697Q16 700 16 709Q16 720 31 720H138Q163 720 173 698L409 179Q412 173 416.5 174Q421 175 421 181V634Q421 666 410 678.5Q399 691 382 694L364 697Q351 700 351 709Q351 720 366 720H509Q524 720 524 709Q524 698 511 697L498 695Q472 691 462 678.5Q452 666 452 634V23Q452 5 445.5 -2Q439 -9 429 -9Z"/><path id="s22" d="M194 -9Q185 -9 181 2L48 443Q41 467 34.5 474Q28 481 14 484L-1 487Q-14 490 -14 500Q-14 510 0 510H165Q179 510 179 500Q179 489 166 487L150 485Q126 482 120 473.5Q114 465 120 443L203 154Q206 143 213 143Q220 143 223 154L304 425Q312 452 308.5 465.5Q305 479 280 483L259 487Q246 490 246 500Q246 510 260 510H387Q401 510 401 499Q401 489 389 485L380 482Q365 477 354.5 464Q344 451 334 419L207 2Q203 -9 194 -9Z"/><path id="s23" d="M27 -205Q12 -205 12 -194Q12 -183 25 -182L39 -180Q60 -177 66.5 -168Q73 -159 73 -138V403Q73 421 67.5 427.5Q62 434 48 436L27 439Q14 440 14 450Q14 458 30 461Q61 466 77.5 477Q94 488 112 504Q121 513 127 513Q136 513 136 501V470Q136 463 142 460.5Q148 458 156 466L167 477Q187 497 208 506.5Q229 516 256 516Q302 516 337.5 485.5Q373 455 393.5 401Q414 347 414 274Q414 191 388 127Q362 63 316.5 27Q271 -9 212 -9Q182 -9 159 2Q141 10 141 -9V-138Q141 -159 147.5 -166.5Q154 -174 175 -177L212 -182Q223 -184 223 -193Q223 -205 208 -205ZM215 16Q271 16 305.5 82Q340 148 340 260Q340 363 310 417Q280 471 225 471Q191 471 166 443Q141 415 141 365V113Q141 68 161.5 42Q182 16 215 16Z"/><path id="s24" d="M30 0Q15 0 15 11Q15 20 28 23L40 25Q61 29 67.5 37.5Q74 46 74 67V403Q74 421 68.5 427.5Q63 434 49 436L28 439Q15 440 15 450Q15 458 31 461Q62 466 78.5 477Q95 488 113 504Q122 513 128 513Q137 513 137 501V456Q137 447 143.5 444.5Q150 442 158 450Q198 488 228.5 502Q259 516 293 516Q338 516 365 484.5Q392 453 392 392V67Q392 46 398.5 37.5Q405 29 426 26L448 23Q459 21 459 11Q459 0 447 0H279Q265 0 265 11Q265 21 276 23L290 25Q311 28 317.5 37Q324 46 324 67V381Q324 430 306 450Q288 470 255 470Q223 470 197.5 451.5Q172 433 157 402.5Q142 372 142 335V67Q142 46 148.5 37Q155 28 176 26L203 23Q214 21 214 12Q214 0 199 0Z"/><path id="s25" d="M178 -215Q102 -215 58 -184.5Q14 -154 14 -111Q14 -93 19 -78.5Q24 -64 40.5 -45Q57 -26 91 4Q103 15 103 24.5Q103 34 91 39Q55 54 48 77.5Q41 101 65 121L137 183Q149 193 136 200Q95 220 71 262Q47 304 47 352Q47 398 67 435Q87 472 121 494Q155 516 197 516Q221 516 243 508Q257 503 260 517Q269 555 293.5 576.5Q318 598 342 598Q365 598 379.5 584.5Q394 571 394 551Q394 534 384 524Q374 514 359 514Q346 514 340 519Q334 524 329 529Q324 534 313 534Q289 534 283 508Q280 498 283.5 491Q287 484 294 477Q318 454 331.5 421Q345 388 345 348Q345 300 325.5 262Q306 224 272.5 202Q239 180 197 180Q179 180 166 172.5Q153 165 140 151L123 132Q110 116 115.5 101.5Q121 87 143 87H229Q301 87 343 51.5Q385 16 385 -46Q385 -95 357 -133Q329 -171 282.5 -193Q236 -215 178 -215ZM196 205Q232 205 253 244Q274 283 274 350Q274 415 252.5 454.5Q231 494 196 494Q161 494 139.5 454.5Q118 415 118 350Q118 283 139 244Q160 205 196 205ZM190 -193Q226 -193 256 -177Q286 -161 303.5 -132.5Q321 -104 321 -68Q321 -23 294.5 1.5Q268 26 220 26H197Q166 26 150.5 20Q135 14 121 -1Q90 -34 82 -54Q74 -74 74 -95Q74 -139 104.5 -166Q135 -193 190 -193Z"/><path id="m26" d="M30 516H101L160 70H169L257 516H345L433 70H442L501 516H570L491 0H387L305 432H297L213 0H109Z"/><path id="m27" d="M98 740H178V432H182Q190 451 202 468.5Q214 486 231.5 499Q249 512 273 520Q297 528 329 528Q410 528 459 476.5Q508 425 508 331V0H428V317Q428 388 397 422.5Q366 457 306 457Q282 457 259 451Q236 445 218 433Q200 421 189 402Q178 383 178 358V0H98Z"/><path id="m28" d="M332 630Q297 630 283 644.5Q269 659 269 681V697Q269 719 283 733.5Q297 748 332 748Q367 748 381 733.5Q395 719 395 697V681Q395 659 381 644.5Q367 630 332 630ZM106 68H292V448H106V516H372V68H546V0H106Z"/><path id="m29" d="M309 -12Q253 -12 208.5 7Q164 26 132.5 61.5Q101 97 84 146.5Q67 196 67 257Q67 319 84.5 369Q102 419 133 454.5Q164 490 207.5 509Q251 528 304 528Q356 528 398.5 509Q441 490 471 456.5Q501 423 517 377Q533 331 533 276V238H151V214Q151 180 162 151Q173 122 193.5 101Q214 80 243.5 68.5Q273 57 309 57Q361 57 399 81Q437 105 457 147L516 107Q493 55 439.5 21.5Q386 -12 309 -12ZM304 462Q271 462 243 450Q215 438 194.5 417Q174 396 162.5 367.5Q151 339 151 305V298H447V309Q447 343 436.5 371Q426 399 407.5 419.5Q389 440 362.5 451Q336 462 304 462Z"/><path id="m2a" d="M325 0Q266 0 238.5 33Q211 66 211 118V448H39V516H167Q193 516 203.5 526.5Q214 537 214 563V698H291V516H526V448H291V68H526V0Z"/><path id="m2b" d="M77 68H228V448H77V516H308V386H313Q329 447 373.5 481.5Q418 516 487 516H559V436H462Q393 436 350.5 396Q308 356 308 291V68H508V0H77Z"/><path id="m2c" d="M422 84H418Q410 65 398 47.5Q386 30 368.5 17Q351 4 327 -4Q303 -12 271 -12Q190 -12 141 39.5Q92 91 92 185V516H172V199Q172 128 203 93.5Q234 59 294 59Q318 59 341 65Q364 71 382 83Q400 95 411 113.5Q422 132 422 158V516H502V0H422Z"/></defs><g class="accent" transform="translate(0 39.44) scale(0.012 -0.012)"><use href="#m0"/><use href="#m1" x="600"/></g><g class="ink" transform="translate(64 57.36) scale(0.064 -0.064)"><use href="#s2"/><use href="#s3" x="603"/><use href="#s4" x="921"/><use href="#s5" x="1144"/><use href="#s6" x="1403"/><use href="#s8" x="1928"/><use href="#s9" x="2267"/><use href="#sa" x="2675"/><use href="#s6" x="3132"/><use href="#s5" x="3657"/><use href="#sb" x="3916"/><use href="#sc" x="4386"/><use href="#s5" x="4779"/><use href="#sd" x="5208"/><use href="#s8" x="5516"/><use href="#sc" x="5855"/><use href="#se" x="6254"/><use href="#s6" x="6474"/><use href="#sd" x="6829"/><use href="#sf" x="7137"/></g><g class="mute" transform="translate(812.8 39.44) scale(0.014 -0.014)"><use href="#m10"/><use href="#m11" x="600"/><use href="#m12" x="1200"/><use href="#m13" x="1800"/><use href="#m14" x="2400"/><use href="#m16" x="3600"/><use href="#m17" x="4200"/></g><g class="accent" transform="translate(0 123.44) scale(0.012 -0.012)"><use href="#m0"/><use href="#m18" x="600"/></g><g class="ink" transform="translate(64 141.36) scale(0.064 -0.064)"><use href="#s19"/><use href="#s1a" x="478"/><use href="#s4" x="932"/><use href="#se" x="1155"/><use href="#sa" x="1375"/><use href="#sd" x="2002"/><use href="#s1b" x="2304"/><use href="#sd" x="2693"/><use href="#s5" x="3001"/><use href="#s6" x="3260"/><use href="#s1c" x="3615"/><use href="#sd" x="4319"/><use href="#s5" x="4797"/><use href="#sb" x="5056"/><use href="#sc" x="5526"/><use href="#s5" x="5919"/><use href="#se" x="6348"/><use href="#sc" x="6568"/><use href="#sd" x="6967"/><use href="#s5" x="7275"/><use href="#sf" x="7534"/></g><g class="mute" transform="translate(829.6 123.44) scale(0.014 -0.014)"><use href="#m1d"/><use href="#m1d" x="600"/><use href="#m1e" x="1200"/><use href="#m1d" x="1800"/><use href="#m1d" x="2400"/><use href="#m1f" x="3000"/></g><g class="accent" transform="translate(0 207.44) scale(0.012 -0.012)"><use href="#m0"/><use href="#m20" x="600"/></g><g class="ink" transform="translate(64 225.36) scale(0.064 -0.064)"><use href="#s21"/><use href="#s6" x="522"/><use href="#s22" x="877"/><use href="#s6" x="1258"/><use href="#s3" x="1613"/><use href="#sd" x="2101"/><use href="#s5" x="2409"/><use href="#s9" x="2668"/><use href="#s23" x="3076"/><use href="#se" x="3690"/><use href="#s6" x="3910"/><use href="#sc" x="4265"/><use href="#s3" x="4664"/><use href="#s24" x="4982"/><use href="#s4" x="5452"/><use href="#s24" x="5675"/><use href="#s25" x="6145"/><use href="#sf" x="6547"/></g><g class="mute" transform="translate(779.2 207.44) scale(0.014 -0.014)"><use href="#m26"/><use href="#m27" x="600"/><use href="#m28" x="1200"/><use href="#m12" x="1800"/><use href="#m29" x="2400"/><use href="#m11" x="3600"/><use href="#m2a" x="4200"/><use href="#m2b" x="4800"/><use href="#m2c" x="5400"/><use href="#m29" x="6000"/><use href="#m17" x="6600"/></g><path class="hair" d="M0 0.5H880M0 84.5H880M0 168.5H880M0 252.5H880"/></svg>
